<svg width="72" height="72" viewBox="0 0 72 72" fill="none" xmlns="http://www.w3.org/2000/svg">
<g clip-path="url(#clip0_5012_38182)">
<mask id="mask0_5012_38182" style="mask-type:luminance" maskUnits="userSpaceOnUse" x="0" y="0" width="72" height="72">
<path d="M72 0H0V72H72V0Z" fill="white"/>
</mask>
<g mask="url(#mask0_5012_38182)">
<mask id="mask1_5012_38182" style="mask-type:luminance" maskUnits="userSpaceOnUse" x="-1" y="-1" width="74" height="74">
<path d="M-0.25 -0.25H72.25V72.25H-0.25V-0.25Z" fill="white"/>
</mask>
<g mask="url(#mask1_5012_38182)">
<path d="M0.0783691 35.9991C0.0783691 55.8376 16.1608 71.9199 35.9993 71.9199C55.8377 71.9199 71.9198 55.8376 71.9198 35.9991C71.9198 16.1607 55.8377 0.0784149 35.9993 0.0784149C16.1608 0.0784149 0.0783691 16.1607 0.0783691 35.9991Z" fill="url(#paint0_linear_5012_38182)"/>
<path d="M11.8215 36.0698C11.8215 49.4681 22.6832 60.3296 36.0815 60.3296C49.4798 60.3296 60.3412 49.4681 60.3412 36.0698C60.3412 22.6715 49.4798 11.8099 36.0815 11.8099C22.6832 11.8099 11.8215 22.6715 11.8215 36.0698Z" fill="url(#paint1_linear_5012_38182)"/>
</g>
</g>
</g>
<defs>
<linearGradient id="paint0_linear_5012_38182" x1="55.1996" y1="66.2292" x2="14.2216" y2="7.87385" gradientUnits="userSpaceOnUse">
<stop stop-color="#E25A01" stop-opacity="0.580769"/>
<stop offset="0.5" stop-color="#F09701" stop-opacity="0.580769"/>
<stop offset="1" stop-color="#FFD400" stop-opacity="0.580769"/>
</linearGradient>
<linearGradient id="paint1_linear_5012_38182" x1="49.0489" y1="56.4863" x2="21.3735" y2="17.0748" gradientUnits="userSpaceOnUse">
<stop stop-color="#E25A01"/>
<stop offset="0.5" stop-color="#F09701"/>
<stop offset="1" stop-color="#FFD400"/>
</linearGradient>
<clipPath id="clip0_5012_38182">
<rect width="72" height="72" fill="white"/>
</clipPath>
</defs>
</svg>
